<?xml version="1.0" encoding="UTF-8"?> <svg xmlns="http://www.w3.org/2000/svg" width="24" height="24" viewBox="0 0 24 24" fill="none"> <g clip-path="url(#clip0_234_4528)"> <g clip-path="url(#clip1_234_4528)"> <path d="M20.5607 10.5123C20.3887 10.4942 20.2185 10.4614 20.052 10.4143C19.6424 10.2914 19.2649 10.0797 18.9464 9.7943C18.788 9.6498 18.6633 9.47221 18.5812 9.27413C18.4992 9.07605 18.4617 8.86234 18.4715 8.64816C18.4946 8.16743 18.6516 7.72227 18.8158 7.42794C18.9026 7.27318 19.0023 7.12599 19.1138 6.98792C19.1873 6.89534 19.224 6.77889 19.217 6.66089C19.21 6.54288 19.1597 6.43162 19.0757 6.34841L17.6516 4.92463C17.5661 4.84036 17.4524 4.7907 17.3324 4.78517C17.2124 4.77964 17.0946 4.81864 17.0016 4.89468C16.8671 5.00366 16.723 5.10039 16.5712 5.18371C16.1949 5.38829 15.7776 5.50638 15.3498 5.52936C15.1354 5.53902 14.9215 5.50128 14.7233 5.41884C14.5251 5.33639 14.3476 5.21127 14.2033 5.05237C13.9189 4.73387 13.7081 4.35668 13.5859 3.94757C13.5383 3.78118 13.5051 3.611 13.4867 3.43893C13.4752 3.31939 13.4199 3.20835 13.3313 3.12727C13.2427 3.04619 13.1272 3.00085 13.0072 3H10.9928C10.8725 3.00088 10.7568 3.04623 10.6679 3.12732C10.579 3.20841 10.5233 3.31952 10.5115 3.43924C10.4936 3.6113 10.4608 3.78149 10.4135 3.94789C10.3211 4.27139 10.118 4.69659 9.79576 5.05253C9.65145 5.21145 9.47387 5.3366 9.27567 5.41907C9.07747 5.50154 8.86353 5.5393 8.64907 5.52967C8.22107 5.50635 7.8036 5.38818 7.42688 5.18371C7.27567 5.09952 7.1319 5.00262 6.99712 4.89406C6.90415 4.81802 6.78636 4.77902 6.66638 4.78455C6.5464 4.79007 6.43269 4.83974 6.34711 4.924L5.63625 5.63683L4.92493 6.34809C4.83998 6.43376 4.7899 6.54794 4.78443 6.66846C4.77895 6.78897 4.81846 6.90722 4.8953 7.00024C5.00347 7.13435 5.10002 7.27743 5.18388 7.42794C5.34689 7.7218 5.50397 8.16603 5.52815 8.64582C5.53852 8.86063 5.50127 9.07507 5.41907 9.27381C5.33688 9.47254 5.21177 9.65065 5.05269 9.79539C4.73383 10.0805 4.35605 10.2918 3.94624 10.4143C3.77982 10.4615 3.60962 10.4943 3.43756 10.5123C3.31804 10.5243 3.20721 10.5801 3.12642 10.669C3.04562 10.7579 3.00059 10.8735 3 10.9936V13.0058C2.9998 13.1248 3.0436 13.2397 3.12299 13.3284C3.20237 13.417 3.31174 13.4732 3.43007 13.4862C3.60468 13.5047 3.77744 13.5378 3.94656 13.5851C4.35637 13.7076 4.73414 13.9189 5.053 14.204C5.21208 14.3487 5.33719 14.5268 5.41939 14.7256C5.50158 14.9243 5.53883 15.1387 5.52846 15.3536C5.5043 15.7801 5.38666 16.1961 5.18388 16.5721C5.09893 16.7241 5.00102 16.8686 4.89124 17.0038C4.81539 17.0953 4.77627 17.2118 4.78149 17.3306C4.7867 17.4493 4.83589 17.5619 4.91947 17.6464L5.63625 18.363L6.34758 19.0757C6.433 19.1602 6.54676 19.2101 6.66682 19.2156C6.78689 19.2212 6.90475 19.182 6.99759 19.1056C7.13219 18.9971 7.27581 18.9003 7.42688 18.8163C7.80309 18.6127 8.21975 18.495 8.64689 18.4717C8.86096 18.4619 9.07456 18.4993 9.27257 18.5813C9.47057 18.6632 9.64812 18.7877 9.79264 18.9459C10.1165 19.3019 10.3204 19.7274 10.4129 20.0521C10.4602 20.2185 10.4929 20.3887 10.5108 20.5608C10.5227 20.6806 10.5785 20.7918 10.6675 20.8729C10.7565 20.954 10.8724 20.9993 10.9928 21H13.0072C13.1274 20.9993 13.2431 20.954 13.3318 20.8728C13.4205 20.7917 13.4759 20.6805 13.4873 20.5608C13.5057 20.3887 13.5389 20.2185 13.5865 20.0521C13.6789 19.728 13.8829 19.3034 14.2044 18.9468C14.349 18.7879 14.527 18.6629 14.7255 18.5807C14.9241 18.4985 15.1383 18.4612 15.353 18.4714C15.8333 18.4951 16.2777 18.6519 16.5719 18.816C16.7235 18.8995 16.8673 18.9964 17.0016 19.1056C17.0945 19.182 17.2123 19.2212 17.3324 19.2156C17.4525 19.2101 17.5662 19.1602 17.6516 19.0757L19.0757 17.6519C19.1596 17.5687 19.2099 17.4574 19.2169 17.3394C19.2239 17.2214 19.1871 17.105 19.1136 17.0124C19.0023 16.8743 18.9027 16.7272 18.8158 16.5725C18.6516 16.278 18.4946 15.833 18.4715 15.3523C18.4617 15.1381 18.4992 14.9244 18.5812 14.7263C18.6633 14.5283 18.788 14.3507 18.9464 14.2062C19.2649 13.9208 19.6424 13.7091 20.052 13.5862C20.2187 13.5397 20.3888 13.507 20.5607 13.4882C20.6806 13.4766 20.7918 13.4209 20.8729 13.332C20.9541 13.2431 20.9994 13.1272 21 13.0068V10.9947C20.9996 10.8742 20.9545 10.758 20.8733 10.6689C20.7921 10.5797 20.6807 10.5239 20.5607 10.5123ZM11.9993 15.7543C9.92602 15.7543 8.24474 14.0734 8.24474 12C8.24474 9.92657 9.92602 8.24558 11.9993 8.24558C14.0726 8.24558 15.754 9.92657 15.754 12C15.754 14.0734 14.073 15.7543 11.9993 15.7543Z" stroke="#303863" stroke-width="1.7"></path> </g> </g> <defs> <clipPath id="clip0_234_4528"> <rect width="24" height="24" fill="white"></rect> </clipPath> <clipPath id="clip1_234_4528"> <rect width="20" height="20" fill="white" transform="translate(2 2)"></rect> </clipPath> </defs> </svg> 