<?xml version="1.0" encoding="UTF-8"?> <svg xmlns="http://www.w3.org/2000/svg" width="24" height="24" viewBox="0 0 24 24" fill="none"> <g clip-path="url(#clip0_234_4523)"> <path fill-rule="evenodd" clip-rule="evenodd" d="M21 20V19L20.995 18.783C20.9391 17.4958 20.3884 16.2798 19.4578 15.3887C18.5272 14.4975 17.2885 14.0001 16 14H8L7.783 14.005C6.49575 14.0609 5.27978 14.6116 4.38866 15.5422C3.49754 16.4728 3.00007 17.7115 3 19V20L3.005 20.15C3.04284 20.6532 3.26947 21.1234 3.63945 21.4665C4.00943 21.8096 4.49542 22.0002 5 22H19L19.15 21.995C19.6532 21.9572 20.1234 21.7305 20.4665 21.3605C20.8096 20.9906 21.0002 20.5046 21 20ZM19.0422 20.2976C19.1102 20.288 19.173 20.2553 19.22 20.2046C19.2714 20.1491 19.3 20.0762 19.3 20.0005V19.0195L19.2959 18.8413C19.2553 17.9974 18.8925 17.2011 18.282 16.6165C17.6679 16.0284 16.8504 15.7001 16 15.7C16 15.7 16 15.7 16 15.7H8.01958L7.84129 15.7041C6.99744 15.7447 6.20108 16.1075 5.61652 16.718C5.0284 17.3321 4.70007 18.1497 4.7 19C4.7 19 4.7 19 4.7 19V19.9717L4.70235 20.0422C4.71201 20.1102 4.74474 20.173 4.79538 20.22C4.85088 20.2714 4.92378 20.3 4.99946 20.3H18.9717L19.0422 20.2976ZM14.3335 4.66655C13.7146 4.04768 12.8752 3.7 12 3.7C11.1248 3.7 10.2854 4.04768 9.66655 4.66655C9.04768 5.28542 8.7 6.12479 8.7 7C8.7 7.87521 9.04768 8.71458 9.66655 9.33345C10.2854 9.95232 11.1248 10.3 12 10.3C12.8752 10.3 13.7146 9.95232 14.3335 9.33345C14.9523 8.71458 15.3 7.87521 15.3 7C15.3 6.12479 14.9523 5.28542 14.3335 4.66655ZM15.5355 3.46447C14.5979 2.52678 13.3261 2 12 2C10.6739 2 9.40215 2.52678 8.46447 3.46447C7.52678 4.40215 7 5.67392 7 7C7 8.32608 7.52678 9.59785 8.46447 10.5355C9.40215 11.4732 10.6739 12 12 12C13.3261 12 14.5979 11.4732 15.5355 10.5355C16.4732 9.59785 17 8.32608 17 7C17 5.67392 16.4732 4.40215 15.5355 3.46447Z" fill="#303863"></path> </g> <defs> <clipPath id="clip0_234_4523"> <rect width="24" height="24" fill="white"></rect> </clipPath> </defs> </svg> 